<svg width="1200" height="630" viewBox="0 0 1200 630" xmlns="http://www.w3.org/2000/svg">
  <rect width="1200" height="630" fill="#C4541A"/>
  <rect width="1200" height="8" fill="#2A1A0E" y="0"/>
  <rect width="200" height="8" fill="#2A1A0E" y="0"/>
  <rect width="200" height="8" fill="#8B3A1A" x="200" y="0"/>
  <rect width="200" height="8" fill="#C4541A" x="400" y="0"/>
  <rect width="200" height="8" fill="#E8842A" x="600" y="0"/>
  <rect width="200" height="8" fill="#F2C07E" x="800" y="0"/>
  <rect width="200" height="8" fill="#F5EDD9" x="1000" y="0"/>
  <rect width="1200" height="8" fill="#2A1A0E" y="622"/>
  <rect width="200" height="8" fill="#2A1A0E" y="622"/>
  <rect width="200" height="8" fill="#8B3A1A" x="200" y="622"/>
  <rect width="200" height="8" fill="#C4541A" x="400" y="622"/>
  <rect width="200" height="8" fill="#E8842A" x="600" y="622"/>
  <rect width="200" height="8" fill="#F2C07E" x="800" y="622"/>
  <rect width="200" height="8" fill="#F5EDD9" x="1000" y="622"/>
  <text x="600" y="230" text-anchor="middle" font-family="monospace" font-size="120" font-weight="400" fill="#F5EDD9" letter-spacing="18">indie</text>
  <line x1="280" y1="280" x2="920" y2="280" stroke="#F5EDD9" stroke-width="2.5" opacity="0.6"/>
  <text x="600" y="390" text-anchor="middle" font-family="monospace" font-size="120" font-weight="400" fill="#F5EDD9" letter-spacing="18">AZ</text>
  <text x="600" y="480" text-anchor="middle" font-family="monospace" font-size="22" fill="#FAF3E8" letter-spacing="6" opacity="0.75">ARIZONA INDEPENDENT COMMERCE</text>
  <line x1="400" y1="510" x2="800" y2="510" stroke="#F5EDD9" stroke-width="0.8" opacity="0.3"/>
  <text x="600" y="545" text-anchor="middle" font-family="monospace" font-size="16" fill="#EDD9B0" letter-spacing="4" opacity="0.6">We are shaping the future by honoring the past.</text>
</svg>
